<?xml version="1.0" encoding="UTF-8" standalone="no"?>
<!DOCTYPE svg PUBLIC "-//W3C//DTD SVG 1.1//EN" "http://www.w3.org/Graphics/SVG/1.1/DTD/svg11.dtd">
<svg width="100%" height="100%" viewBox="0 0 481 225" version="1.1" xmlns="http://www.w3.org/2000/svg" xmlns:xlink="http://www.w3.org/1999/xlink" xml:space="preserve" xmlns:serif="http://www.serif.com/" style="fill-rule:evenodd;clip-rule:evenodd;stroke-linejoin:round;stroke-miterlimit:2;">
    <g transform="matrix(1,0,0,1,-12123,-6002)">
        <g transform="matrix(1,0,0,1,661.835,257.919)">
            <path d="M11573.5,5756.74L11571.1,5756.74L11571.1,5746.64L11573.5,5746.64C11575.3,5746.64 11577.1,5746.68 11578.9,5746.77L11581.2,5746.88L11581.1,5749.27C11578.6,5749.09 11576.1,5749 11573.5,5749L11573.5,5756.74ZM11586.9,5749.83L11587.3,5747.47L11589.6,5747.81C11593.2,5748.34 11596.7,5749.04 11600.2,5749.91L11602.5,5750.48L11601.9,5752.8C11597,5751.47 11592,5750.47 11586.9,5749.83ZM11607.5,5754.49L11608.3,5752.24L11610.5,5753.04C11613.9,5754.26 11617.2,5755.64 11620.5,5757.17L11622.6,5758.19L11621.6,5760.34C11617.1,5758.07 11612.4,5756.11 11607.5,5754.49ZM11626.7,5763.1L11628,5761.05L11630,5762.27C11633.1,5764.12 11636.1,5766.13 11638.9,5768.27L11640.8,5769.68L11639.4,5771.59C11635.4,5768.47 11631.2,5765.63 11626.7,5763.1ZM11643.9,5775.29L11645.5,5773.53L11647.3,5775.11C11649.9,5777.53 11652.5,5780.07 11654.9,5782.73L11656.5,5784.48L11654.7,5786.09C11651.4,5782.24 11647.8,5778.63 11643.9,5775.29ZM11658.4,5790.59L11660.3,5789.17L11661.7,5791.06C11663.9,5793.94 11665.9,5796.93 11667.7,5800.02L11668.9,5802.05L11666.9,5803.28C11664.4,5798.84 11661.5,5794.6 11658.4,5790.59ZM11669.7,5808.41L11671.8,5807.39L11672.8,5809.52C11674.4,5812.76 11675.7,5816.08 11677,5819.48L11677.8,5821.71L11675.5,5822.51C11673.9,5817.65 11671.9,5812.94 11669.7,5808.41ZM11677.2,5828.09L11679.5,5827.51L11680.1,5829.8C11681,5833.27 11681.7,5836.8 11682.2,5840.38L11682.5,5842.72L11680.2,5843.07C11679.5,5837.95 11678.5,5832.95 11677.2,5828.09ZM11680.7,5848.87L11683.1,5848.75L11683.2,5851.11C11683.3,5852.9 11683.4,5854.69 11683.4,5856.5L11683.4,5858.86L11673.3,5858.86L11673.3,5856.5L11681,5856.5C11681,5853.93 11680.9,5851.39 11680.7,5848.87ZM11667.2,5856.5L11667.2,5858.86L11651.8,5858.86L11651.8,5856.5L11667.2,5856.5ZM11645.7,5856.5L11645.7,5858.86L11630.3,5858.86L11630.3,5856.5L11645.7,5856.5ZM11624.2,5856.5L11624.2,5858.86L11608.8,5858.86L11608.8,5856.5L11624.2,5856.5ZM11602.7,5856.5L11602.7,5858.86L11587.3,5858.86L11587.3,5856.5L11602.7,5856.5ZM11581.2,5856.5L11581.2,5858.86L11571.1,5858.86L11571.1,5848.76L11573.5,5848.76L11573.5,5856.5L11581.2,5856.5ZM11573.5,5842.74L11571.1,5842.74L11571.1,5827.26L11573.5,5827.26L11573.5,5842.74ZM11573.5,5821.24L11571.1,5821.24L11571.1,5805.76L11573.5,5805.76L11573.5,5821.24ZM11573.5,5799.74L11571.1,5799.74L11571.1,5784.26L11573.5,5784.26L11573.5,5799.74ZM11573.5,5778.24L11571.1,5778.24L11571.1,5762.76L11573.5,5762.76L11573.5,5778.24ZM11466.2,5863.78L11463.9,5863.89L11463.8,5861.53C11463.7,5860.65 11463.7,5859.76 11463.7,5858.86L11463.6,5858.86L11463.6,5854.14L11473.5,5854.14L11473.5,5856.5L11466,5856.5C11466,5858.95 11466.1,5861.38 11466.2,5863.78ZM11479,5856.5L11479,5854.14L11494,5854.14L11494,5856.5L11479,5856.5ZM11499.6,5856.5L11499.6,5854.14L11509.4,5854.14L11509.4,5856.5C11509.4,5858.12 11509.5,5859.72 11509.6,5861.3L11509.8,5863.66L11507.5,5863.83C11507.2,5861.42 11507.1,5858.98 11507.1,5856.5L11499.6,5856.5ZM11508.2,5869.01L11510.5,5868.49L11511,5870.8C11511.8,5873.95 11512.7,5877.01 11513.9,5879.97L11514.7,5882.16L11512.6,5883.02C11510.6,5878.58 11509.2,5873.89 11508.2,5869.01ZM11514.9,5887.73L11516.9,5886.56L11518.1,5888.61C11519.7,5891.39 11521.5,5894.03 11523.5,5896.53L11525,5898.37L11523.2,5899.82C11520,5896.12 11517.2,5892.07 11514.9,5887.73ZM11526.7,5903.65L11528.3,5901.95L11530,5903.55C11532.4,5905.72 11534.9,5907.72 11537.6,5909.53L11539.5,5910.85L11538.2,5912.77C11534,5910.16 11530.2,5907.1 11526.7,5903.65ZM11542.7,5915.38L11543.7,5913.29L11545.9,5914.31C11548.7,5915.69 11551.7,5916.86 11554.8,5917.8L11557.1,5918.48L11556.4,5920.7C11551.6,5919.43 11547,5917.64 11542.7,5915.38ZM11561.5,5921.85L11561.9,5919.55L11564.2,5919.89C11567.2,5920.34 11570.3,5920.57 11573.5,5920.57C11573.6,5920.57 11573.7,5920.57 11573.8,5920.57L11576.1,5920.56L11576.1,5922.88C11575.3,5922.91 11574.4,5922.93 11573.5,5922.93C11569.4,5922.93 11565.4,5922.56 11561.5,5921.85ZM11581.4,5922.47L11581,5920.17L11583.3,5919.81C11586.5,5919.32 11589.7,5918.59 11592.7,5917.64L11594.9,5916.93L11595.6,5919.14C11591.1,5920.75 11586.3,5921.88 11581.4,5922.47ZM11600.5,5917.2L11599.5,5915.12L11601.6,5914.08C11604.5,5912.66 11607.3,5911.04 11609.9,5909.22L11611.8,5907.88L11613.2,5909.78C11609.2,5912.7 11605,5915.19 11600.5,5917.2ZM11617.2,5906.49L11615.6,5904.8L11617.4,5903.18C11618.5,5902.09 11619.7,5900.95 11620.7,5899.76L11622.4,5897.95L11629.4,5904.99L11627.8,5906.66L11622.5,5901.36C11620.8,5903.17 11619.1,5904.88 11617.2,5906.49ZM11631.7,5910.59L11633.4,5908.91L11644,5919.52L11642.3,5921.19L11631.7,5910.59ZM11646.2,5925.11L11647.9,5923.44L11654.8,5930.37L11653.2,5932.04C11652.1,5933.26 11650.9,5934.45 11649.7,5935.61L11648,5937.25L11646.3,5935.53C11648.1,5933.89 11649.9,5932.18 11651.5,5930.41L11646.2,5925.11ZM11642.5,5938.92L11644,5940.78L11642.1,5942.26C11639.5,5944.36 11636.8,5946.34 11634,5948.19L11632,5949.49L11630.7,5947.5C11634.8,5944.91 11638.8,5942.04 11642.5,5938.92ZM11626.3,5950.13L11627.4,5952.24L11625.4,5953.36C11622.4,5954.94 11619.4,5956.39 11616.3,5957.71L11614.1,5958.63L11613.2,5956.43C11617.7,5954.62 11622.1,5952.52 11626.3,5950.13ZM11608.4,5958.21L11609.1,5960.49L11606.8,5961.2C11603.7,5962.22 11600.4,5963.09 11597.1,5963.81L11594.8,5964.32L11594.3,5961.99C11599.1,5961.04 11603.8,5959.78 11608.4,5958.21ZM11589.2,5962.85L11589.5,5965.22L11587.2,5965.52C11583.9,5965.93 11580.5,5966.19 11577.2,5966.3L11574.8,5966.38L11574.7,5963.99C11579.6,5963.94 11584.5,5963.55 11589.2,5962.85ZM11569.6,5963.93L11569.5,5966.31L11567.1,5966.18C11563.7,5965.98 11560.4,5965.64 11557.1,5965.14L11554.7,5964.79L11555.1,5962.43C11559.8,5963.25 11564.7,5963.75 11569.6,5963.93ZM11550.1,5961.43L11549.5,5963.75L11547.2,5963.19C11543.9,5962.38 11540.7,5961.43 11537.5,5960.34L11535.3,5959.56L11536.1,5957.31C11540.6,5958.98 11545.3,5960.37 11550.1,5961.43ZM11531.3,5955.4L11530.3,5957.58L11528.2,5956.6C11525.1,5955.21 11522.1,5953.68 11519.2,5952.03L11517.2,5950.86L11518.4,5948.78C11522.5,5951.27 11526.8,5953.48 11531.3,5955.4ZM11514,5946.04L11512.7,5948L11510.7,5946.65C11508,5944.72 11505.3,5942.68 11502.7,5940.51L11500.9,5938.99L11502.5,5937.17C11506.1,5940.38 11510,5943.34 11514,5946.04ZM11498.7,5933.69L11497,5935.36L11495.3,5933.68C11493,5931.3 11490.7,5928.8 11488.6,5926.21L11487.1,5924.38L11489,5922.86C11492,5926.69 11495.2,5930.3 11498.7,5933.69ZM11485.9,5918.76L11483.9,5920.1L11482.6,5918.15C11480.7,5915.38 11478.9,5912.52 11477.3,5909.57L11476.2,5907.5L11478.2,5906.35C11480.5,5910.67 11483.1,5914.81 11485.9,5918.76ZM11476,5901.75L11473.8,5902.71L11472.8,5900.55C11471.5,5897.48 11470.3,5894.35 11469.2,5891.15L11468.5,5888.91L11470.7,5888.15C11472.2,5892.83 11473.9,5897.37 11476,5901.75ZM11469.4,5883.22L11467,5883.76L11466.5,5881.46C11465.7,5878.21 11465.1,5874.91 11464.7,5871.56L11464.3,5869.22L11466.7,5868.89C11467.3,5873.77 11468.2,5878.56 11469.4,5883.22ZM11727.4,5940.26L11725.7,5941.93L11718.7,5934.96L11720.4,5933.29L11725.7,5928L11727.4,5929.67L11722.1,5934.96L11727.4,5940.26ZM11731.2,5925.78L11729.6,5924.11L11740.1,5913.54L11741.8,5915.21L11731.2,5925.78ZM11745.7,5911.32L11744,5909.65L11754.6,5899.09L11756.3,5900.76L11745.7,5911.32ZM11760.2,5896.87L11758.5,5895.2L11769.1,5884.63L11770.7,5886.3L11760.2,5896.87ZM11774.6,5882.41L11773,5880.74L11783.5,5870.17L11785.2,5871.84L11774.6,5882.41ZM11789.1,5867.95L11787.4,5866.28L11798,5855.71L11799.7,5857.38L11789.1,5867.95ZM11803.5,5853.49L11801.9,5851.82L11812.4,5841.25L11814.1,5842.92L11803.5,5853.49ZM11818,5839.03L11816.3,5837.36L11826.9,5826.79L11828.6,5828.46L11818,5839.03ZM11832.5,5824.57L11830.8,5822.9L11841.4,5812.33L11843,5814L11832.5,5824.57ZM11846.9,5810.11L11845.2,5808.44L11855.8,5797.87L11857.5,5799.54L11846.9,5810.11ZM11861.4,5795.66L11859.7,5793.98L11861.1,5792.57L11856,5792.57L11856,5790.2L11863.4,5790.2C11864.5,5790.2 11865.6,5790.26 11866.7,5790.37L11861.4,5795.66ZM11850.6,5790.2L11850.6,5792.57L11835.8,5792.57L11835.8,5790.2L11850.6,5790.2ZM11830.4,5790.2L11830.4,5792.57L11815.6,5792.57L11815.6,5790.2L11830.4,5790.2ZM11810.2,5790.2L11810.2,5792.57L11795.4,5792.57L11795.4,5790.2L11810.2,5790.2ZM11790,5790.2L11790,5792.57L11775.2,5792.57L11775.2,5790.2L11790,5790.2ZM11769.9,5790.2L11769.9,5792.57L11755,5792.57L11755,5790.2L11769.9,5790.2ZM11749.7,5790.2L11749.7,5792.57L11734.9,5792.57L11734.9,5790.2L11749.7,5790.2ZM11729.5,5790.2L11729.5,5792.57L11719.7,5792.57L11719.7,5782.68L11722.1,5782.68L11722.1,5790.2L11729.5,5790.2ZM11722.1,5777.07L11719.7,5777.07L11719.7,5762.01L11722.1,5762.01L11722.1,5777.07ZM11722.1,5756.4L11719.7,5756.4L11719.7,5746.51L11729.5,5746.51L11729.5,5748.87L11722.1,5748.87L11722.1,5756.4ZM11734.9,5748.87L11734.9,5746.51L11749.7,5746.51L11749.7,5748.87L11734.9,5748.87ZM11755,5748.87L11755,5746.51L11769.9,5746.51L11769.9,5748.87L11755,5748.87ZM11775.2,5748.87L11775.2,5746.51L11790,5746.51L11790,5748.87L11775.2,5748.87ZM11795.4,5748.87L11795.4,5746.51L11810.2,5746.51L11810.2,5748.87L11795.4,5748.87ZM11815.6,5748.87L11815.6,5746.51L11830.4,5746.51L11830.4,5748.87L11815.6,5748.87ZM11835.8,5748.87L11835.8,5746.51L11850.6,5746.51L11850.6,5748.87L11835.8,5748.87ZM11856,5748.87L11856,5746.51L11863.4,5746.51C11865.1,5746.51 11866.7,5746.56 11868.4,5746.67L11870.7,5746.82L11870.6,5749.22C11868.2,5748.98 11865.8,5748.87 11863.4,5748.87L11856,5748.87ZM11875.5,5749.86L11875.9,5747.51L11878.2,5747.97C11881.5,5748.62 11884.7,5749.48 11887.9,5750.55L11890.1,5751.31L11889.3,5753.58C11884.9,5751.9 11880.2,5750.65 11875.5,5749.86ZM11893.9,5755.47L11895,5753.32L11897.1,5754.36C11900.1,5755.83 11902.9,5757.49 11905.7,5759.34L11907.7,5760.65L11906.3,5762.65C11902.4,5759.85 11898.3,5757.45 11893.9,5755.47ZM11910.3,5765.66L11911.8,5763.85L11913.6,5765.41C11914.9,5766.5 11916.1,5767.64 11917.3,5768.82C11918.4,5770 11919.6,5771.21 11920.7,5772.46L11922.2,5774.23L11920.4,5775.81C11918.9,5773.97 11917.3,5772.19 11915.6,5770.49C11913.9,5768.78 11912.1,5767.17 11910.3,5765.66ZM11923.4,5779.73L11925.4,5778.4L11926.7,5780.36C11928.6,5783.13 11930.2,5786.02 11931.7,5788.99L11932.8,5791.11L11930.6,5792.17C11928.6,5787.82 11926.2,5783.65 11923.4,5779.73ZM11932.5,5796.73L11934.8,5795.96L11935.5,5798.2C11936.6,5801.34 11937.5,5804.56 11938.1,5807.82L11938.6,5810.14L11936.2,5810.61C11935.4,5805.86 11934.2,5801.21 11932.5,5796.73ZM11936.9,5815.5L11939.2,5815.35L11939.4,5817.7C11939.5,5819.36 11939.6,5821.02 11939.6,5822.69L11939.6,5830.1L11937.2,5830.1L11937.2,5822.69C11937.2,5820.28 11937.1,5817.88 11936.9,5815.5ZM11937.2,5835.46L11939.6,5835.46L11939.6,5850.28L11937.2,5850.28L11937.2,5835.46ZM11937.2,5855.65L11939.6,5855.65L11939.6,5870.47L11937.2,5870.47L11937.2,5855.65ZM11937.2,5875.84L11939.6,5875.84L11939.6,5890.66L11937.2,5890.66L11937.2,5875.84ZM11937.2,5896.03L11939.6,5896.03L11939.6,5910.85L11937.2,5910.85L11937.2,5896.03ZM11937.2,5916.22L11939.6,5916.22L11939.6,5931.03L11937.2,5931.03L11937.2,5916.22ZM11937.2,5936.4L11939.6,5936.4L11939.6,5951.22L11937.2,5951.22L11937.2,5936.4ZM11937.2,5956.59L11939.6,5956.59L11939.6,5966.36L11929.7,5966.36L11929.7,5964L11937.2,5964L11937.2,5956.59ZM11924.1,5964L11924.1,5966.36L11909,5966.36L11909,5964L11924.1,5964ZM11903.4,5964L11903.4,5966.36L11893.5,5966.36L11893.5,5956.59L11895.9,5956.59L11895.9,5964L11903.4,5964ZM11895.9,5951.22L11893.5,5951.22L11893.5,5936.4L11895.9,5936.4L11895.9,5951.22ZM11895.9,5931.03L11893.5,5931.03L11893.5,5916.22L11895.9,5916.22L11895.9,5931.03ZM11895.9,5910.85L11893.5,5910.85L11893.5,5896.03L11895.9,5896.03L11895.9,5910.85ZM11895.9,5890.66L11893.5,5890.66L11893.5,5875.84L11895.9,5875.84L11895.9,5890.66ZM11895.9,5870.47L11893.5,5870.47L11893.5,5855.65L11895.9,5855.65L11895.9,5870.47ZM11895.9,5850.28L11893.5,5850.28L11893.5,5835.46L11895.9,5835.46L11895.9,5850.28ZM11895.9,5830.1L11893.5,5830.1L11893.5,5824.95L11892.1,5826.37L11890.4,5824.7L11895.7,5819.41C11895.8,5820.5 11895.9,5821.59 11895.9,5822.69L11895.9,5830.1ZM11886.5,5828.59L11888.2,5830.26L11877.6,5840.83L11876,5839.16L11886.5,5828.59ZM11872.1,5843.05L11873.7,5844.72L11863.2,5855.29L11861.5,5853.61L11872.1,5843.05ZM11857.6,5857.5L11859.3,5859.17L11848.7,5869.74L11847,5868.07L11857.6,5857.5ZM11843.2,5871.96L11844.8,5873.63L11834.3,5884.2L11832.6,5882.53L11843.2,5871.96ZM11828.7,5886.42L11830.4,5888.09L11819.8,5898.66L11818.1,5896.99L11828.7,5886.42ZM11814.2,5900.88L11815.9,5902.55L11805.3,5913.12L11803.7,5911.45L11814.2,5900.88ZM11799.8,5915.34L11801.4,5917.01L11790.9,5927.58L11789.2,5925.91L11799.8,5915.34ZM11785.3,5929.8L11787,5931.47L11776.4,5942.04L11774.7,5940.37L11785.3,5929.8ZM11770.9,5944.26L11772.5,5945.93L11762,5956.5L11760.3,5954.83L11770.9,5944.26ZM11756.4,5958.72L11758.1,5960.39L11751.1,5967.34L11744.1,5960.37L11745.8,5958.7L11751.1,5964L11756.4,5958.72ZM11741.9,5954.78L11740.2,5956.45L11729.6,5945.85L11731.3,5944.18L11741.9,5954.78Z"/>
        </g>
    </g>
</svg>
