<?xml version="1.0" encoding="UTF-8" standalone="no"?>
<!DOCTYPE svg PUBLIC "-//W3C//DTD SVG 1.1//EN" "http://www.w3.org/Graphics/SVG/1.1/DTD/svg11.dtd">
<svg width="100%" height="100%" viewBox="0 0 472 216" version="1.1" xmlns="http://www.w3.org/2000/svg" xmlns:xlink="http://www.w3.org/1999/xlink" xml:space="preserve" xmlns:serif="http://www.serif.com/" style="fill-rule:evenodd;clip-rule:evenodd;stroke-linejoin:round;stroke-miterlimit:2;">
    <g transform="matrix(1,0,0,1,-13583,-6010)">
        <g transform="matrix(1,0,0,1,2117.1,261.982)">
            <path d="M11866.7,5790.37C11865.6,5790.26 11864.5,5790.2 11863.4,5790.2L11722.1,5790.2L11722.1,5748.87L11863.4,5748.87C11883,5748.87 11901.7,5756.64 11915.6,5770.49C11929.4,5784.33 11937.2,5803.11 11937.2,5822.69L11937.2,5964L11895.9,5964L11895.9,5822.69C11895.9,5821.59 11895.8,5820.5 11895.7,5819.41L11751.1,5964L11722.1,5934.96L11866.7,5790.37ZM11573.5,5856.5L11573.5,5749C11632.8,5749 11681,5797.17 11681,5856.5L11573.5,5856.5ZM11466,5856.5L11507.1,5856.5C11507.1,5893.16 11536.8,5922.93 11573.5,5922.93C11592.9,5922.93 11610.3,5914.61 11622.5,5901.36L11651.5,5930.41C11631.9,5951.09 11604.2,5964 11573.5,5964C11514.2,5964 11466,5915.83 11466,5856.5Z"/>
        </g>
    </g>
</svg>
